<?xml version="1.0" encoding="UTF-8" standalone="no"?>
<svg width="76px" height="74px" viewBox="0 0 76 74" version="1.1" xmlns="http://www.w3.org/2000/svg" xmlns:xlink="http://www.w3.org/1999/xlink" xmlns:sketch="http://www.bohemiancoding.com/sketch/ns">
    <!-- Generator: Sketch 3.3 (11970) - http://www.bohemiancoding.com/sketch -->
    <title>Path 65</title>
    <desc>Created with Sketch.</desc>
    <defs></defs>
    <g id="Page-1" stroke="none" stroke-width="1" fill="none" fill-rule="evenodd" sketch:type="MSPage">
        <g id="iPhone-45-Copy-4" sketch:type="MSArtboardGroup" transform="translate(-141.000000, -392.000000)" stroke="#1B1BCC">
            <path d="M153.970756,403.600296 C153.970756,403.600296 164.257454,392.845539 175.878727,392.845539 C187.5,392.845539 194.019273,396.208058 195.271258,396.208058 C196.523243,396.208058 211.420236,408.204768 210.663453,409.78283 C209.906669,411.360891 215.714397,418.131796 215.714397,429.835395 C215.714397,441.538994 213.363787,443.259672 212.407777,445.235473 C211.451767,447.211273 203.350764,460.077284 201.39001,459.12127 C199.429256,458.165256 192.053502,466.24405 183.966115,465.494433 C175.878727,464.744816 165.164102,465.812625 161.40241,461.031141 C157.640718,456.249657 149.984752,455.509358 147.960935,448.290549 C145.937117,441.071739 142.439868,437.120136 142.439868,428.404246 C142.439868,419.688356 145.250567,416.338738 146.605751,413.060784 C147.960935,409.782829 153.970756,403.600296 153.970756,403.600296 Z" id="Path-65" sketch:type="MSShapeGroup"></path>
        </g>
    </g>
</svg>